<?xml version="1.0"?>
<svg xmlns="http://www.w3.org/2000/svg" xmlns:xlink="http://www.w3.org/1999/xlink" x="0px" y="0px" width="676px" height="128.875px"
	 viewBox="0 0 676 128.875" enable-background="new 0 0 676 128.875" xml:space="preserve">
				<path d="M0,98.122h13.905c2.471,0.047,5.203,0.128,7.552,1.453c2.685,1.577,3.453,3.834,3.453,6.018
					c0,3.276-2.052,5.456-4.992,6.353c-0.941,0.252-1.919,0.428-2.903,0.556c1.112,0.124,2.18,0.252,3.203,0.505
					c2.944,0.768,6.098,2.899,6.098,7.256c0,1.023-0.171,2.348-0.854,3.627c-2.3,4.305-7.679,4.305-12.155,4.348H0v-1.112h3.626
					V99.232H0V98.122z M9.94,99.322v12.666h3.494c3.331,0,5.116-1.196,5.116-6.185c0-5.633-1.785-6.48-5.285-6.48H9.94z
					 M9.94,113.182v13.943h4.266c1.402,0,3.109-0.167,4.26-2.044c0.77-1.285,0.898-2.99,0.898-4.818c0-2.182-0.169-4.18-1.196-5.419
					c-1.234-1.538-3.027-1.662-4.264-1.662H9.94z"/>
				<path d="M28.728,98.336c0.815,0,2.221,0,3.761-0.041c1.53-0.045,3.237-0.173,4.598-0.426v29.256h2.818v1.112H28.728v-1.112
					h2.989V99.532h-2.989V98.336z"/>
				<path d="M52.695,110.407c2.435,0,5.246,0.042,8.485-0.128v16.847h2.817v1.112h-8.237v-2.732
					c-1.658,1.752-3.198,3.241-6.819,3.241c-5.293,0-5.248-3.369-5.248-6.136v-11.093h-2.775v-1.11c2.775,0,5.037,0.042,8.188-0.128
					v13.269c0.088,1.363,0.171,3.233,2.266,3.233c0.593,0,1.149-0.167,1.791-0.552c2.598-1.538,2.598-4.177,2.598-6.015v-8.697
					h-3.066V110.407z"/>
				<path d="M83.902,123.326c-0.978,1.885-2.939,5.421-8.104,5.421c-6.051,0-9.765-4.309-9.765-9.461
					c0-5.34,3.879-9.388,9.425-9.388c2.386,0,4.739,0.894,6.354,2.642c1.703,1.838,2.002,3.71,2.302,5.633H71.918
					c0,1.112-0.044,2.215,0,3.365c0.041,1.624,0.169,5.886,4.434,5.886c3.626,0,5.419-2.9,6.484-4.604L83.902,123.326z
					 M78.485,114.455c-0.128-1.483-0.252-3.582-3.027-3.582c-2.982,0-3.246,2.047-3.411,3.753L72,116.935h6.485V114.455z"/>
				<path d="M110.544,105.978l-1.363-0.047c-0.421-2.052-1.577-7.336-7.591-7.336c-5.545,0-6.613,4.566-6.994,6.183
					c-0.725,3.072-0.813,6.22-0.813,9.386c0,8.657,1.88,13.47,7.167,13.47c1.239,0,2.431-0.291,3.543-0.854
					c3.451-1.746,4.519-5.028,5.156-6.994h1.324l-0.471,8.451h-1.022l-1.367-1.881c-0.807,0.726-2.812,2.519-7.163,2.519
					c-9.853,0-14.333-7.589-14.333-15.307c0-9.732,7.166-16.084,14.754-16.084c3.754,0,5.853,1.62,6.953,2.471l0.855-1.833h1.106
					L110.544,105.978z"/>
				<path d="M113.262,110.407c2.817,0,5.629-0.086,8.404-0.385l-0.088,3.675c0.43-0.69,0.809-1.367,1.32-1.923
					c0.984-1.149,2.221-1.876,3.965-1.876c2.648,0,3.759,1.876,3.759,3.537c0,1.192-0.679,2.901-2.856,2.901
					c-1.754,0-2.732-1.281-2.732-2.51c0-0.772,0.299-1.247,0.552-1.585c0.088-0.171,0.218-0.295,0.218-0.424
					c0-0.214-0.302-0.43-0.599-0.43c-0.599,0-1.962,1.744-1.962,1.744c-1.365,1.88-1.705,4.185-1.705,5.894v8.101h3.539v1.112
					h-11.814v-1.112h2.897v-15.608h-2.897V110.407z"/>
				<path d="M152.235,122.906c-0.601,1.662-3.16,5.798-9.345,5.798c-6.862,0-10.362-4.689-10.362-9.469
					c0-6.609,5.884-9.337,10.237-9.337c3.883,0,9.555,2.3,9.981,9.041C152.836,120.263,152.706,121.667,152.235,122.906z
					 M146.392,113.306c-0.681-1.532-1.962-2.339-3.667-2.339c-4.181,0-4.271,4.434-4.271,8.186c0,5.071,0.43,5.972,0.771,6.566
					c0.513,1.025,1.664,2.133,3.541,2.133c4.221,0,4.221-4.689,4.183-8.874C146.901,114.455,146.649,113.86,146.392,113.306z"/>
				<path d="M168.301,115.14h-1.196c-0.297-1.104-0.554-2.086-1.791-3.027c-0.855-0.644-2.092-1.021-3.156-1.021
					c-1.789,0-3.023,1.196-3.023,2.51c0,0.644,0.293,1.324,0.807,1.752c0.383,0.342,1.789,0.854,2.982,1.157l1.284,0.338
					c2.049,0.595,5.327,1.534,5.327,5.456c0,2.819-1.913,6.441-6.57,6.441c-1.962,0-3.49-0.852-3.747-1.019
					c-0.687-0.385-1.067-0.646-1.365-0.646c-0.768,0-0.728,0.855-0.683,1.155h-1.239v-6.485h1.239
					c0.255,1.367,0.511,2.938,1.964,4.271c1.06,1.021,2.555,1.577,3.965,1.577c2.214,0,3.622-1.371,3.622-2.732
					c0-2.257-3.072-2.643-4.816-3.157c-2.73-0.895-5.76-1.877-5.76-6.051c0-2.82,1.708-5.762,5.717-5.762
					c1.496,0,2.638,0.423,3.364,0.809c0.432,0.261,0.644,0.342,0.984,0.342c0.768,0,0.807-0.424,0.895-1.369h1.196V115.14z"/>
				<path d="M185.178,115.14h-1.192c-0.295-1.104-0.554-2.086-1.789-3.027c-0.85-0.644-2.09-1.021-3.158-1.021
					c-1.791,0-3.028,1.196-3.028,2.51c0,0.644,0.298,1.324,0.811,1.752c0.383,0.342,1.793,0.854,2.985,1.157l1.281,0.338
					c2.045,0.595,5.332,1.534,5.332,5.456c0,2.819-1.921,6.441-6.566,6.441c-1.964,0-3.504-0.852-3.761-1.019
					c-0.678-0.385-1.063-0.646-1.365-0.646c-0.766,0-0.719,0.855-0.679,1.155h-1.241v-6.485h1.241
					c0.253,1.367,0.509,2.938,1.962,4.271c1.068,1.021,2.561,1.577,3.965,1.577c2.221,0,3.626-1.371,3.626-2.732
					c0-2.257-3.07-2.643-4.822-3.157c-2.728-0.895-5.755-1.877-5.755-6.051c0-2.82,1.703-5.762,5.716-5.762
					c1.494,0,2.646,0.423,3.37,0.809c0.426,0.261,0.635,0.342,0.979,0.342c0.768,0,0.811-0.424,0.895-1.369h1.192V115.14z"/>
				<path d="M201.633,98.122h13.903c2.471,0.047,5.199,0.128,7.544,1.453c2.687,1.577,3.455,3.834,3.455,6.018
					c0,3.276-2.045,5.456-4.989,6.353c-0.937,0.252-1.923,0.428-2.899,0.556c1.112,0.124,2.174,0.252,3.199,0.505
					c2.946,0.768,6.102,2.899,6.102,7.256c0,1.023-0.175,2.348-0.856,3.627c-2.3,4.305-7.676,4.305-12.158,4.348h-13.3v-1.112h3.618
					V99.232h-3.618V98.122z M211.569,99.322v12.666h3.498c3.323,0,5.114-1.196,5.114-6.185c0-5.633-1.791-6.48-5.291-6.48H211.569z
					 M211.569,113.182v13.943h4.264c1.406,0,3.111-0.167,4.266-2.044c0.766-1.285,0.896-2.99,0.896-4.818
					c0-2.182-0.175-4.18-1.196-5.419c-1.236-1.538-3.029-1.662-4.264-1.662H211.569z"/>
				<path d="M230.359,98.336c0.811,0,2.219,0,3.755-0.041c1.536-0.045,3.237-0.173,4.602-0.426v29.256h2.818v1.112h-11.175v-1.112
					h2.987V99.532h-2.987V98.336z"/>
				<path d="M254.324,110.407c2.428,0,5.246,0.042,8.485-0.128v16.847h2.817v1.112h-8.235v-2.732
					c-1.664,1.752-3.198,3.241-6.825,3.241c-5.289,0-5.242-3.369-5.242-6.136v-11.093h-2.774v-1.11c2.774,0,5.032,0.042,8.192-0.128
					v13.269c0.082,1.363,0.165,3.233,2.257,3.233c0.597,0,1.155-0.167,1.791-0.552c2.602-1.538,2.602-4.177,2.602-6.015v-8.697
					h-3.068V110.407z"/>
				<path d="M285.531,123.326c-0.982,1.885-2.944,5.421-8.104,5.421c-6.057,0-9.765-4.309-9.765-9.461
					c0-5.34,3.873-9.388,9.425-9.388c2.384,0,4.732,0.894,6.352,2.642c1.706,1.838,2.003,3.71,2.306,5.633h-12.201
					c0,1.112-0.047,2.215,0,3.365c0.043,1.624,0.169,5.886,4.435,5.886c3.625,0,5.417-2.9,6.483-4.604L285.531,123.326z
					 M280.114,114.455c-0.132-1.483-0.259-3.582-3.027-3.582c-2.985,0-3.244,2.047-3.415,3.753l-0.043,2.309h6.485V114.455z"/>
				<path d="M307.06,106.009h-1.367c-0.299-1.445-0.597-2.942-1.75-4.519c-1.705-2.219-3.966-2.763-5.586-2.763
					c-3.496,0-5.544,2.386-5.544,5.152c0,1.371,0.683,2.646,1.791,3.458c0.852,0.642,3.286,1.369,5.672,2.052
					c2.604,0.762,5.376,1.66,6.911,3.151c1.063,1.029,2.428,3.156,2.428,6.438c0,2.386-0.807,4.779-2.343,6.617
					c-2.221,2.6-4.861,3.28-7.636,3.28c-3.749,0-5.757-1.318-7.591-2.557l-1.453,1.919h-1.237v-8.318h1.237
					c0.468,1.367,1.026,3.072,2.473,4.648c1.668,1.828,4.05,2.899,6.442,2.899c3.752,0,6.313-2.557,6.313-5.715
					c0-3.622-3.027-4.6-5.588-5.417l-1.876-0.552c-4.778-1.457-9.125-2.812-9.125-8.749c0-2.604,0.683-4.946,2.643-6.951
					c1.962-2.004,4.138-2.6,6.65-2.6c2.984,0,4.612,1.068,6.1,2.005l1.455-1.577h0.982V106.009z"/>
				<path d="M311.945,98.295c1.155,0,2.608,0,4.354-0.082c2.388-0.134,3.239-0.263,3.962-0.344v15.65
					c0.986-1.19,3.036-3.622,7.082-3.622c2.559,0,3.883,0.894,4.48,1.571c1.196,1.371,1.155,2.823,1.155,4.227v11.43h2.812v1.112
					h-10.451v-1.112h2.345v-11.263c0.047-2.166-0.165-4.089-2.516-4.089c-0.933,0-1.789,0.295-2.426,0.766
					c-2.431,1.663-2.479,4.395-2.518,6.823v7.763h2.602v1.112h-10.879v-1.112h3.072V99.446h-3.072V98.295z"/>
				<path d="M337.01,111.518v-1.11c1.923,0,2.944-0.039,4.056-0.086c1.068-0.081,2.176-0.171,4.181-0.299v17.104h2.733v1.112H337.01
					v-1.112h2.901v-15.608H337.01z M342.001,99.489c1.713,0,3.074,1.367,3.074,3.066c0,1.706-1.36,3.081-3.074,3.081
					c-1.706,0-3.068-1.375-3.068-3.081C338.933,100.856,340.296,99.489,342.001,99.489z"/>
				<path d="M368.099,123.326c-0.974,1.885-2.943,5.421-8.108,5.421c-6.053,0-9.763-4.309-9.763-9.461
					c0-5.34,3.882-9.388,9.423-9.388c2.392,0,4.743,0.894,6.356,2.642c1.713,1.838,2.011,3.71,2.313,5.633h-12.201
					c0,1.112-0.047,2.215,0,3.365c0.034,1.624,0.171,5.886,4.433,5.886c3.624,0,5.419-2.9,6.484-4.604L368.099,123.326z
					 M362.684,114.455c-0.132-1.483-0.257-3.582-3.033-3.582c-2.98,0-3.237,2.047-3.408,3.753l-0.039,2.309h6.48V114.455z"/>
				<path d="M369.749,98.336c0.819,0,2.225,0,3.761-0.041c1.536-0.045,3.239-0.173,4.597-0.426v29.256h2.815v1.112h-11.173v-1.112
					h2.987V99.532h-2.987V98.336z"/>
				<path d="M393.794,99.408v-1.194h2.864c2.176,0,3.324-0.134,5.374-0.344v29.256h2.812v1.112h-8.227v-2.686
					c-0.982,1.448-2.095,3.194-5.248,3.194c-1.108,0-2.262-0.167-3.28-0.595c-0.77-0.342-5.077-2.433-5.077-8.617
					c0-6.563,4.608-9.637,8.149-9.637c3.113,0,4.601,1.748,5.456,2.774V99.408H393.794z M396.019,113.907
					c-0.729-1.5-2.225-2.563-3.586-2.563c-3.023,0-3.753,3.582-3.753,7.941c0,0.85,0.053,1.744,0.135,2.596
					c0.208,1.876,0.636,5.462,3.532,5.462c1.622,0,3.288-1.581,3.924-3.294c0.212-0.502,0.563-1.528,0.51-5.281
					C396.735,116.208,396.527,114.887,396.019,113.907z"/>
				<path fill="#0079C1" d="M535.076,126.792c-2.995,0-5.175-2.168-5.175-5.197c0-2.993,2.18-5.188,5.175-5.188
					c2.979,0,5.162,2.194,5.162,5.188C540.238,124.624,538.055,126.792,535.076,126.792 M535.076,127.758
					c3.386,0,6.132-2.767,6.132-6.164c0-3.378-2.746-6.145-6.132-6.145c-3.391,0-6.148,2.767-6.148,6.145
					C528.928,124.992,531.686,127.758,535.076,127.758 M533.687,121.951h1.495l1.98,3.117h1.007l-2.091-3.117
					c1.21-0.108,2.164-0.6,2.164-1.958c0-1.268-0.611-1.939-2.445-1.939h-2.999v7.015h0.889V121.951z M533.687,121.142v-2.284h1.923
					c0.852,0,1.654,0.124,1.654,1.118c0,1.311-1.356,1.166-2.347,1.166H533.687z"/>
				<path fill="#0079C1" d="M659.095,126.792c-2.999,0-5.184-2.168-5.184-5.197c0-2.993,2.185-5.188,5.184-5.188
					c2.982,0,5.162,2.194,5.162,5.188C664.257,124.624,662.077,126.792,659.095,126.792 M659.095,127.758
					c3.382,0,6.128-2.767,6.128-6.164c0-3.378-2.746-6.145-6.128-6.145c-3.395,0-6.153,2.767-6.153,6.145
					C652.941,124.992,655.7,127.758,659.095,127.758 M657.701,121.951h1.499l1.977,3.117h1.006l-2.086-3.117
					c1.21-0.108,2.16-0.6,2.16-1.958c0-1.268-0.604-1.939-2.438-1.939h-3.007v7.015h0.889V121.951z M657.701,121.142v-2.284h1.923
					c0.855,0,1.654,0.124,1.654,1.118c0,1.311-1.356,1.166-2.347,1.166H657.701z"/>
			<polygon fill="#0079C1" points="557.897,35.575 522.322,35.575 522.322,0 465.738,0 465.738,35.575 430.155,35.575
				430.155,92.302 465.738,92.302 465.738,127.879 522.347,127.879 522.322,92.302 557.897,92.302 "/>
			<path fill="#0079C1" d="M668.169,0.317c-12.086,6.412-24.272,9.812-42.303,9.812c-18.055,0-30.226-3.4-42.318-9.808
				c-4.979,8.685-7.815,21.129-7.815,36.608c0,41.144,23.103,68.698,28.799,74.745c5.681,6.041,16.971,15.378,21.335,16.311
				c4.352-0.933,15.646-10.288,21.326-16.323C652.885,105.627,676,78.069,676,36.93C676,21.451,673.156,9.002,668.169,0.317"/>
			<path fill="#FFFFFF" d="M527.171,51.749c-8.764,0.141-16.611,1.504-21.387,1.772c-5.049,0.31-8.749,2.973-5.351,9.347
				c3.427,6.377,14.823,27.703,15.271,28.602c8.268-6.419,13.573-16.447,13.573-27.707
				C529.278,59.536,528.544,55.506,527.171,51.749 M516.899,83.478c0,0-10.83-20.46-12.004-22.683c-1.194-2.223,0-2.374,1.324-2.514
				c1.039,0,17.357-1.336,17.357-1.336C525.635,68.504,522.225,76.802,516.899,83.478 M482.062,53.521
				c-4.678-0.265-12.31-1.528-20.85-1.713c-1.337,3.722-2.066,7.774-2.066,11.955c0,11.05,5.118,20.915,13.121,27.353
				c2.249-4.219,12.057-22.508,15.129-28.247C490.802,56.494,487.085,53.832,482.062,53.521 M482.945,60.795
				c-1.186,2.223-12.016,22.683-12.016,22.683c-5.33-6.676-8.744-14.974-6.666-26.534c0,0,16.307,1.336,17.346,1.336
				C482.945,58.421,484.119,58.572,482.945,60.795 M491.221,47.277c1.394-1.426,1.508-3.567-0.419-5.906
				c-3.406-4.154-0.457-8.155,3.112-8.011c3.558,0.151,6.52,3.857,3.121,8.011c-1.919,2.339-1.825,4.48-0.423,5.906
				c1.083,1.126,2.97,1.807,5.313,1.807l24.15-0.008c-2.538-5.499-3.341-6.963-7.713-10.743c-5.79-5.016-16.592-9.636-24.158-9.636
				c-9.689,0-18.446,3.936-24.79,10.288c-2.901,2.914-5.285,6.318-7.033,10.083l23.527,0.016
				C488.255,49.084,490.121,48.404,491.221,47.277 M502.806,34.988c5.496,1.2,10.178,5.423,14.24,9.496h-16.168
				C500.878,41.667,504.586,41.216,502.806,34.988 M485.02,34.999c-1.78,6.218,1.932,6.668,1.932,9.486h-16.177
				C474.349,39.739,479.527,36.188,485.02,34.999 M493.914,66.277c-1.475,0-2.232,0.904-3.112,2.377
				c-0.782,1.302-13.483,19.737-16.438,24.024c5.64,3.885,12.484,6.154,19.84,6.154c7.22,0,13.902-2.18,19.472-5.888
				c0,0-15.756-22.81-16.641-24.291C496.135,67.182,495.394,66.277,493.914,66.277 M493.914,93.852
				c-4.894,0-9.196-0.882-12.594-2.655c0,0,11.563-18.246,12.594-18.246c1.035,0,12.615,18.246,12.615,18.246
				C503.115,92.97,498.813,93.852,493.914,93.852"/>
			<path fill="#FFFFFF" d="M663.022,12.965c-7.493,3.975-21.877,7.688-37.156,7.688c-15.3,0-29.676-3.714-37.173-7.688
				c-2.75,4.146-3.98,15.663-3.98,23.588c0,37.117,19.317,60.95,21.934,64.165c3.565,4.339,16.819,16.259,19.22,16.83
				c2.375-0.57,15.639-12.49,19.199-16.83c2.633-3.225,21.934-27.047,21.934-64.165C666.999,28.628,665.772,17.111,663.022,12.965
				 M643.171,97.248c-3.202,3.912-15.141,15.099-17.305,15.657c-2.164-0.558-14.118-11.745-17.325-15.657
				c-2.376-2.899-19.236-20.947-20.316-57.745c-0.212-7.135,0.29-16.769,2.763-20.495c6.748,3.573,21.103,5.603,34.879,5.603
				c13.739-0.004,28.114-2.029,34.858-5.603c2.478,3.726,2.97,13.36,2.771,20.487C662.428,76.301,645.551,94.349,643.171,97.248"/>
			<path fill="#FFFFFF" d="M628.633,86.069c-0.603-0.249-2.168-0.847-2.922-1.165c-0.949-0.406-2.607-1.255-3.288-1.481
				c-0.627-0.214-1.65-0.369-0.297-1.071c-0.054-0.988-0.176-1.679-0.204-2.441c0-0.617-0.11-1.34-0.167-2.078
				c-5.477,0.049-7.685,8.451,1.251,10.692c1.3,0.322,1.703,0.458,2.241,0.733c0.985,0.526,1.365,0.833,1.813,1.271
				c0.579,0.54,0.93,1.239,0.93,2.196v4.284C633.11,94.333,633.628,88.246,628.633,86.069"/>
			<path fill="#FFFFFF" d="M627.558,75.201c-0.889-0.255-0.901,0.008-2.693-0.186c-0.97-0.112-1.398-0.218-2.213-0.261
				c-0.021,0.654,0.037,2.483,0.073,3.058l0.122,1.915v1.503c0,0.188,0.024,1.006,0.033,1.206c0.644,0.344,1.197,0.9,2.265,1.308
				c0.722,0.265,1.684,0.731,2.384,0.831c0-0.66-0.028-2.074,0-2.754c0.009-1.286-0.073-1.255-0.053-2.579
				c0.017-0.703,0.082-1.636,0.126-2.347C627.626,76.549,627.549,75.465,627.558,75.201"/>
			<path fill="#FFFFFF" d="M624.64,90.332c-0.681-0.202-0.692-0.132-1.279-0.354c0.13,3.284,0.31,7.243,0.342,9.594
				c0.058,2.292,0.118,5.118,0.118,5.645c1.337,0.909,3.008,0.141,3.008,0.141c0.036-0.367,0.325-3.948,0.387-7.837
				c0.024-1.589,0.195-5.128-0.48-5.82C626.4,91.287,625.711,90.635,624.64,90.332"/>
			<path fill="#FFFFFF" d="M618.951,100.188c0.005,0.373,0.103,1.919,0.836,2.296c0.269,0.141,0.477-0.01,0.587-0.181
				c0.533-0.813,0.419-2.659,1.527-3.598l-0.081-3.498C620.219,95.822,618.936,98.226,618.951,100.188"/>
			<path fill="#FFFFFF" d="M628.764,68.351c-1.365-0.291-2.095-0.466-2.498-0.52c-2.371-0.295-3.109-0.242-5.102-0.373l-1.23-2.86
				l-1.394-3.419c-4.616,1.791-5.138,10.902,2.001,12.265c3.084,0.591,4.001,0.534,4.934,0.642c1.789,0.192,3.737,0.008,4.271,0.78
				c0.949,1.374-0.347,1.626-0.981,2.325c-0.204,0.532-0.204,0.762-0.261,1.508c-0.119,1.192-0.135,2.377-0.155,3.492
				C636.04,81.418,638.306,70.395,628.764,68.351"/>
			<path fill="#FFFFFF" d="M629.541,49.394c-0.513-0.124-1.014-0.318-1.576-0.458c-1.296-0.326-2.751-0.586-4.352-0.753
				c-1.565-0.125-3.012-0.544-4.177-0.772c-8.476-1.717-7.347-5.378-6.816-7.096c1.418,0.525,2.746,0.839,4.168,1.027
				c1.662,0.209,3.463,0.271,5.008-0.432c-1.386-1.204-4.784-1.748-5.814-2.689c0,0,1.833-0.236,4.934,0.114
				c1.553,0.186,3.505-0.719,3.505-0.719c-1.157-2.744-4.779-5.315-11.503-4.192c-9.258,1.538-12.057,18.721,6.976,21.198
				c1.116,0.141,3.301,0.29,4.552,0.416c1.98,0.175,2.909,0.175,4.059,0.397c0.807,0.155,2.97,3.276,0.004,3.582
				c0,0-0.477,3.315,0.366,6.9C637.772,66.047,641.492,52.301,629.541,49.394 M620.748,35.007c0,0-0.289,0.859-0.904,0.933
				c-0.57,0.065-0.941-0.188-1.324-0.442c-1.035-0.642-1.699-0.748-1.699-0.748S618.911,34.013,620.748,35.007"/>
			<polygon fill="#FFFFFF" points="621.938,66.53 627.528,67.049 627.528,56.233 621.151,55.744 618.895,59.391 620.374,63.001
				"/>
			<path fill="#FFFFFF" d="M634.513,34.813c-0.974,0.656-3.957,3.329-5.114,3.901c-0.619,0.31-0.484-5.521-0.484-5.521
				c0.045-0.475-1.491-1.477-3.117-2.137c-0.191-0.102-0.465-0.409-0.941-0.638c-2.53-0.813-3.915-1.344-3.847,1.072
				c0.021,0.389-0.162,0.882,0.29,1.614c0,0,2.44,1.204,3.516,3.251c0.632,1.208,0.808,1.962,0.808,1.962s-0.534,0.446-2.099,0.676
				c1.198,0.385,2.204,0.878,3.146,1.045l0.889,0.972c-0.693,0.073-2.571-0.179-4.621-0.844l0.293,0.933
				c-0.822,0.679-1.182,0.854-2.57,0.994c-0.069,1.581,0.024,3.315,0.265,4.743l6.89,1.143c0.563-0.326,1.174-1.55,1.243-1.62
				c1.227-1.314,3.573-3.777,8.491-8.552C639.418,35.991,636.488,33.495,634.513,34.813"/>
					<path fill="#0079C1" d="M325.265,40.275c-3.131-2.776-7.503-4.241-12.647-4.241c-4.578,0-9.155,2.1-12.542,5.761
						c-3.626,3.91-5.629,9.264-5.643,15.086c-0.015,5.704,2.063,10.93,5.845,14.715c3.608,3.612,8.408,5.594,13.523,5.582
						c9.885-0.018,15.429-7.324,16.407-14.114l0.053-0.354h-0.358h-2.435H327.2l-0.039,0.275
						c-0.697,5.503-5.378,11.346-12.687,11.328c-5.833-0.008-9.182-3.995-9.196-10.942c0,0,0-7.599,0-9.223h25.259h0.322
						l-0.017-0.315C330.656,47.938,328.777,43.376,325.265,40.275z M319.907,51.274H305.23c0-0.994,0-4.148,0-4.148
						c-0.004-2.713,0.778-4.942,2.27-6.432c1.308-1.298,3.101-2.009,5.055-2.009c4.73,0.016,7.34,3.023,7.353,8.463
						C319.907,47.149,319.907,50.28,319.907,51.274z"/>
					<path fill="#0079C1" d="M245.097,68.286h-0.36h-2.251h-0.252l-0.047,0.249c-0.344,1.821-1.471,4.861-5.175,4.849
						c-2.877-0.008-4.339-2.021-4.352-5.976c0,0,0-24.541,0-27.583h9.145h0.312l-0.004-0.303l-0.006-2.09v-0.31h-0.306h-9.082
						V25.523v-0.346l-0.338,0.039c-2.21,0.249-6.711,0.583-9.05,0.583h-0.308v0.308v11.007h-5.935h-0.31v0.308v2.108v0.3h0.31h5.978
						v24.016c0.008,8.846,3.797,13.334,11.258,13.334c8.565,0,10.366-6.532,10.716-8.532L245.097,68.286z"/>
					<path fill="#0079C1" d="M211.066,73.406V48.982c0-3.779-1.22-7.004-3.542-9.329c-2.325-2.313-5.67-3.602-9.417-3.594
						c-5.12,0.004-9.235,2.063-12.258,6.085l-0.083-4.698l-0.004-0.299h-0.301h-14.779h-0.308v0.308v2.056v0.313h0.308h5.741v33.581
						h-10.788L143.501,9.834l-0.069-0.206h-0.222h-2.266h-0.218l-0.074,0.206l-21.654,63.572h-5.79h-0.31v0.312v2.047v0.312h0.31
						h17.476h0.31v-0.312v-2.047v-0.312h-0.31h-8.027l6.018-18.152h19.354l6.114,18.152h-8.121h-0.31v0.312v2.047v0.312h0.31h45.56
						h0.31v-0.312v-2.055v-0.304h-0.31h-5.715V54.76c0.012-11.12,5.945-15.153,9.928-15.145c3.857,0,5.814,2.498,5.819,7.422
						c0,0,0,23.404,0,26.369h-5.344h-0.314v0.304v2.055v0.312h0.314h20.624h0.308v-0.312v-2.055v-0.304h-0.308H211.066z
						 M138.104,26.607l9.068,25.888h-17.551L138.104,26.607z"/>
					<path fill="#0079C1" d="M286.992,73.406V48.602c-0.004-5.792-3.522-12.55-13.422-12.542
						c-7.668,0.004-11.643,3.726-13.354,5.649V10.121V9.813h-0.308h-14.787h-0.306v0.308v2.16v0.299h0.306h5.46v60.826h-5.92h-0.31
						v0.304v2.055v0.312h0.31h21.198h0.303v-0.312v-2.055v-0.304h-0.303h-5.644V54.52c0-6.528,2.231-10.117,4.101-11.998
						c1.817-1.807,4.128-2.81,6.523-2.806c5.285,0.006,6.41,4.348,6.428,7.988c0,0,0,22.787,0,25.701h-5.647h-0.306v0.304v2.055
						v0.312h0.306h21.198h0.31v-0.312v-2.055v-0.304h-0.31H286.992z"/>
					<path fill="#0079C1" d="M402.358,73.406h-5.921V47.102c-0.008-6.819-4.682-11.05-12.179-11.042
						c-7.086,0.004-10.952,3.533-12.753,5.902c-1.977-3.858-5.795-5.91-11.102-5.902c-5.057,0.004-9.598,1.876-12.613,5.136
						l-0.081-3.749l-0.013-0.299h-0.304h-15.051h-0.306v0.308v2.056v0.313h0.306h6.108v33.581h-6.016h-0.304v0.304v2.055v0.312
						h0.304h20.703h0.304v-0.312v-2.055v-0.304h-0.304h-5.14v-18.56c0.175-5.393,0.432-8.862,2.347-11.531
						c1.671-2.215,4.317-3.592,6.917-3.592c3.213,0,4.344,2.414,4.46,2.689c0.809,1.542,0.809,4.193,0.809,6.762v24.232h-5.37
						h-0.313v0.304v2.055v0.312h0.313h20.356h0.306v-0.312v-2.055v-0.304h-0.306h-5.158v-18.56
						c0.179-5.393,0.424-8.862,2.354-11.531c1.663-2.215,4.312-3.592,6.911-3.592c3.21,0,4.343,2.414,4.457,2.689
						c0.811,1.542,0.811,4.193,0.811,6.762v24.232h-5.342h-0.313v0.304v2.055v0.312h0.313h20.81h0.306v-0.312v-2.055v-0.304H402.358
						z"/>
				<path fill="#0079C1" d="M413.433,76.235c-2.998,0-5.183-2.176-5.183-5.195c0-2.999,2.185-5.187,5.183-5.187
					c2.979,0,5.159,2.188,5.159,5.187C418.592,74.06,416.411,76.235,413.433,76.235 M413.433,77.199
					c3.382,0,6.125-2.763,6.125-6.159c0-3.384-2.743-6.151-6.125-6.151c-3.397,0-6.156,2.767-6.156,6.151
					C407.276,74.437,410.035,77.199,413.433,77.199 M412.035,71.397h1.504l1.976,3.117h1.007l-2.086-3.117
					c1.21-0.112,2.155-0.605,2.155-1.958c0-1.273-0.599-1.945-2.433-1.945h-3.007v7.021h0.884V71.397z M412.035,70.582v-2.278h1.924
					c0.855,0,1.658,0.125,1.658,1.108c0,1.32-1.357,1.169-2.343,1.169H412.035z"/>
</svg>